<?xml version="1.0" encoding="UTF-8"?>
<svg width="960px" height="960px" viewBox="0 0 960 960" version="1.1" xmlns="http://www.w3.org/2000/svg" xmlns:xlink="http://www.w3.org/1999/xlink">
    <title>synology-nas</title>
    <g id="synology-nas" stroke="none" stroke-width="1" fill="none" fill-rule="evenodd">
        <path d="M196.204119,145.958716 C212.495611,135.345208 231.786191,130.293117 251.188714,131.558571 L914.189057,174.800167 C939.958215,176.480859 960,197.872373 960,223.696281 L960,783 C960,809.391799 939.135033,830.910324 913.000779,831.959895 L913,837.357143 C913,842.682746 899.568542,847 883,847 L882.009734,847 C865.899572,846.826906 853,842.576234 853,837.357143 L853,831.999694 L266,831.999694 L266,836.357143 C266,841.62949 252.835828,845.913554 236.496105,845.998708 L236,846 L235.009734,845.994846 C218.899572,845.826906 206,841.576234 206,836.357143 L206,829.961694 L79.6775527,807.988636 C77.8011638,811.863251 67.9556002,814.845071 55.9441213,814.994151 L55,815 L54.1033303,814.994725 C40.7115239,814.836908 30,811.158042 30,806.642857 L30.0003822,798.089057 C12.1490212,790.588863 0,772.976239 0,752.916093 L0,300.339642 C0,283.772352 8.37162748,268.326982 22.2529995,259.283608 L196.204119,145.958716 Z M234.564495,190.764238 C234.54943,191.080866 234.541894,191.397807 234.541894,191.714792 L234.541894,772.802147 C234.541894,781.894375 240.609066,789.569538 248.91569,791.999915 L842.732,791.999915 L842.732,210.223694 L253.074255,171.766703 C243.121455,172.486432 235.050639,180.547161 234.564495,190.764238 Z M862.732,211.528694 L862.732,792 L911,792 C915.881803,792 919.855791,788.113186 919.996163,783.265362 L920,783 L920,444.377694 L910.475468,443.606119 C906.252601,443.263724 903,439.736725 903,435.5 C903,431.68012 906.096625,428.583495 909.916505,428.583495 C910.103055,428.583495 910.289528,428.591043 910.475468,428.606119 L920,429.377694 L920,401.377694 L910.475468,400.606119 C906.252601,400.263724 903,396.736725 903,392.5 C903,388.68012 906.096625,385.583495 909.916505,385.583495 C910.103055,385.583495 910.289528,385.591043 910.475468,385.606119 L920,386.377694 L920,358.377694 L910.475468,357.606119 C906.252601,357.263724 903,353.736725 903,349.5 C903,345.68012 906.096625,342.583495 909.916505,342.583495 C910.103055,342.583495 910.289528,342.591043 910.475468,342.606119 L920,343.377694 L920,315.377694 L910.475468,314.606119 C906.252601,314.263724 903,310.736725 903,306.5 C903,302.68012 906.096625,299.583495 909.916505,299.583495 C910.103055,299.583495 910.289528,299.591043 910.475468,299.606119 L920,300.377694 L920,272.377694 L910.475468,271.606119 C906.252601,271.263724 903,267.736725 903,263.5 C903,259.68012 906.096625,256.583495 909.916505,256.583495 C910.103055,256.583495 910.289528,256.591043 910.475468,256.606119 L920,257.377694 L920,223.696281 C920,219.04095 916.453932,215.16986 911.847597,214.736219 L911.585745,214.715362 L862.732,211.528694 Z M216.06134,180.762017 L44.0872856,292.798738 C41.5376459,294.459766 40,297.296671 40,300.339642 L40,752.916093 C40,757.291564 43.1468513,761.033075 47.4575875,761.782939 L214.361921,790.816412 C215.959442,791.094305 217.564363,791.323446 219.17445,791.503642 C216.216625,785.922216 214.541894,779.557759 214.541894,772.802147 L214.541894,191.714792 C214.541894,191.080821 214.556966,190.446939 214.587097,189.813684 C214.73607,186.682784 215.241159,183.653129 216.06134,180.762017 Z M878,710.418384 C878.136276,710.418384 878.272534,710.421479 878.408669,710.427667 L904.408669,711.609485 C909.215359,711.827971 913,715.788548 913,720.600202 L913,754 C913,758.970563 908.970563,763 904,763 L878,763 C873.029437,763 869,758.970563 869,754 L869,719.418384 C869,714.447821 873.029437,710.418384 878,710.418384 Z M318.171555,201.846551 L767.183236,234.433815 C782.867967,235.572142 795.011681,248.629133 795.011681,264.355117 L795.011681,729 C795.011681,745.568542 781.580223,759 765.011681,759 L316,759 C299.431458,759 286,745.568542 286,729 L286,231.767854 C286,231.043289 286.02625,230.318963 286.078697,229.596299 L286.118617,229.101786 C287.565599,212.824102 301.811726,200.659228 318.171555,201.846551 Z M321.082298,256.596602 L321.054082,256.939946 C321.01804,257.429056 321,257.919326 321,258.409762 L321,688.26374 C321,699.309435 329.954305,708.26374 341,708.26374 L408,708.26374 C419.045695,708.26374 428,699.309435 428,688.26374 L428,263.346997 C428,252.87154 419.916947,244.170929 409.469816,243.401079 L342.469816,238.463845 C331.568738,237.660543 322.065747,245.752772 321.082298,256.596602 Z M446.085911,265.58929 L446.057019,265.932578 C446.01902,266.434726 446,266.93813 446,267.441714 L446,688.26374 C446,699.309435 454.954305,708.26374 466,708.26374 L528,708.26374 C539.045695,708.26374 548,699.309435 548,688.26374 L548,272.133411 C548,261.673122 539.939603,252.97973 529.509136,252.19043 L467.509136,247.498733 C456.609663,246.673942 447.090737,254.74742 446.085911,265.58929 Z M566.08717,273.583316 L566.057888,273.919857 C566.019311,274.412921 566,274.907304 566,275.401875 L566,689.26374 C566,699.75715 574.50659,708.26374 585,708.26374 L644,708.26374 C654.49341,708.26374 663,699.75715 663,689.26374 L663,280.017994 C663,270.099362 655.370431,261.849544 645.482018,261.075882 L586.482018,256.459762 C576.133067,255.650067 567.073185,263.291305 566.08717,273.583316 Z M681.086435,283.58825 L681.057445,283.93153 C681.019162,284.435543 681,284.940826 681,285.44629 L681,687.26374 C681,698.309435 689.954305,707.26374 701,707.26374 L745,707.26374 C756.045695,707.26374 765,698.309435 765,687.26374 L765,288.788362 C765,278.330242 756.942842,269.637884 746.51476,268.845807 L702.51476,265.503735 C691.61552,264.675871 682.094318,272.746664 681.086435,283.58825 Z M877,603.331531 C877.10752,603.331531 877.21502,603.334421 877.322385,603.340198 L892.322385,604.147326 C895.506217,604.318643 898,606.95022 898,610.138659 L898,662.773664 C898,666.087372 895.313708,668.773664 892,668.773664 L891.77793,668.769553 L876.77793,668.213997 C873.552847,668.09455 871,665.445402 871,662.218108 L871,609.331531 C871,606.017822 873.686292,603.331531 877,603.331531 Z M619,599 C626.179702,599 632,605.491871 632,613.5 C632,621.508129 626.179702,628 619,628 C611.820298,628 606,621.508129 606,613.5 C606,605.491871 611.820298,599 619,599 Z M726.5,599 C733.403559,599 739,605.491871 739,613.5 C739,621.508129 733.403559,628 726.5,628 C719.596441,628 714,621.508129 714,613.5 C714,605.491871 719.596441,599 726.5,599 Z M379.5,598 C386.955844,598 393,604.491871 393,612.5 C393,620.508129 386.955844,627 379.5,627 C372.044156,627 366,620.508129 366,612.5 C366,604.491871 372.044156,598 379.5,598 Z M502.5,598 C509.955844,598 516,604.491871 516,612.5 C516,620.508129 509.955844,627 502.5,627 C495.044156,627 489,620.508129 489,612.5 C489,604.491871 495.044156,598 502.5,598 Z" id="Shape" fill="#000000" fill-rule="nonzero"></path>
    </g>
</svg>