<?xml version="1.0" encoding="UTF-8" standalone="no"?>
<!DOCTYPE svg PUBLIC "-//W3C//DTD SVG 1.1//EN" "http://www.w3.org/Graphics/SVG/1.1/DTD/svg11.dtd">
<svg version="1.1" xmlns="http://www.w3.org/2000/svg" xmlns:xlink="http://www.w3.org/1999/xlink" preserveAspectRatio="xMidYMid meet" viewBox="0 0 250 185" width="250" height="185"><defs><path d="M8.41 96.01C17.78 95.12 22.98 94.64 24.02 94.54C24.99 99.78 26.9 103.64 29.77 106.12C32.66 108.56 36.56 109.79 41.46 109.79C46.64 109.79 50.55 108.68 53.2 106.51C55.83 104.28 57.13 101.74 57.13 98.83C57.13 96.95 56.57 95.3 55.48 93.98C54.37 92.68 52.45 91.51 49.7 90.58C47.81 89.86 43.52 88.7 36.83 87C28.21 84.88 22.16 82.23 18.72 79.1C13.83 74.67 11.38 69.27 11.38 62.94C11.38 58.87 12.5 55.02 14.84 51.51C17.13 47.95 20.46 45.23 24.81 43.35C29.15 41.54 34.34 40.59 40.52 40.59C50.52 40.59 58.05 42.81 63.12 47.2C68.18 51.68 70.82 57.56 71.07 64.94C69.46 65 56.53 65.42 54.91 65.48C54.19 61.45 52.76 58.49 50.48 56.67C48.23 54.86 44.83 53.96 40.34 53.96C35.67 53.96 32.01 54.92 29.38 56.87C27.66 58.13 26.81 59.75 26.81 61.81C26.81 63.73 27.6 65.31 29.21 66.67C31.22 68.41 36.16 70.19 43.98 72.02C51.82 73.88 57.59 75.81 61.33 77.81C65.08 79.8 68.02 82.52 70.14 85.99C72.24 89.38 73.33 93.7 73.33 98.78C73.33 103.36 72.05 107.7 69.51 111.68C66.97 115.67 63.37 118.68 58.73 120.64C54.08 122.55 48.29 123.57 41.35 123.57C31.26 123.57 23.48 121.21 18.09 116.5C12.69 111.8 9.46 104.96 8.41 96.01" id="cQgJfGKik"></path><path d="M71.29 64.02L87.5 64.02L101.34 105.24L114.84 64.02L130.64 64.02L110.33 119.84C108.1 125.95 106.86 129.35 106.61 130.03C105.27 133.43 104 136 102.78 137.78C101.58 139.6 100.17 141.07 98.6 142.15C97 143.24 95.06 144.11 92.8 144.73C90.48 145.36 87.88 145.71 84.97 145.71C82.05 145.71 79.15 145.36 76.31 144.73C76.18 143.53 75.17 133.88 75.05 132.67C77.42 133.17 79.57 133.43 81.49 133.43C85.02 133.43 87.64 132.38 89.34 130.3C91.05 128.17 92.34 125.47 93.24 122.24C90.32 114.47 83 95.07 71.29 64.02Z" id="bw6JmRspE"></path><path d="M183.79 122.08L168.53 122.08C168.53 104.35 168.53 94.5 168.53 92.52C168.53 86.3 168.21 82.29 167.53 80.43C166.86 78.6 165.83 77.17 164.32 76.15C162.85 75.14 161.04 74.63 158.97 74.63C156.28 74.63 153.91 75.37 151.76 76.83C149.62 78.27 148.18 80.19 147.38 82.55C146.62 84.97 146.21 89.38 146.21 95.88C146.21 97.63 146.21 106.36 146.21 122.08L130.98 122.08L130.98 64.02L145.08 64.02C145.08 69.12 145.08 71.95 145.08 72.52C150.16 66.09 156.54 62.92 164.22 62.92C167.64 62.92 170.73 63.54 173.55 64.71C176.35 65.96 178.51 67.47 179.92 69.39C181.35 71.29 182.35 73.43 182.92 75.81C183.49 78.17 183.79 81.65 183.79 86.11C183.79 90.91 183.79 102.9 183.79 122.08Z" id="e389LuMP1D"></path><path d="M199.5 93.21C199.5 99.01 200.86 103.43 203.61 106.45C206.35 109.53 209.73 111.08 213.75 111.08C217.78 111.08 221.15 109.53 223.89 106.45C226.59 103.43 227.95 98.95 227.95 93.14C227.95 87.4 226.59 83.02 223.89 79.98C221.15 76.94 217.78 75.37 213.75 75.37C209.73 75.37 206.35 76.94 203.61 79.98C200.86 83.02 199.5 87.45 199.5 93.21M183.87 92.44C183.87 87.29 185.14 82.4 187.65 77.6C190.16 72.85 193.72 69.19 198.33 66.67C202.94 64.14 208.09 62.92 213.76 62.92C222.56 62.92 229.74 65.76 235.34 71.46C240.96 77.17 243.77 84.37 243.77 93.07C243.77 101.85 240.93 109.1 235.27 114.89C229.61 120.64 222.46 123.57 213.87 123.57C208.56 123.57 203.5 122.34 198.65 119.94C193.83 117.53 190.16 114.01 187.65 109.35C185.14 104.73 183.87 99.09 183.87 92.44" id="camxSDknx"></path></defs><g><g><g><use xlink:href="#cQgJfGKik" opacity="1" fill="#ffffff" fill-opacity="1"></use><g><use xlink:href="#cQgJfGKik" opacity="1" fill-opacity="0" stroke="#000000" stroke-width="1" stroke-opacity="0"></use></g></g><g><use xlink:href="#bw6JmRspE" opacity="1" fill="#ffffff" fill-opacity="1"></use><g><use xlink:href="#bw6JmRspE" opacity="1" fill-opacity="0" stroke="#000000" stroke-width="1" stroke-opacity="0"></use></g></g><g><use xlink:href="#e389LuMP1D" opacity="1" fill="#ffffff" fill-opacity="1"></use><g><use xlink:href="#e389LuMP1D" opacity="1" fill-opacity="0" stroke="#000000" stroke-width="1" stroke-opacity="0"></use></g></g><g><use xlink:href="#camxSDknx" opacity="1" fill="#ffffff" fill-opacity="1"></use><g><use xlink:href="#camxSDknx" opacity="1" fill-opacity="0" stroke="#000000" stroke-width="1" stroke-opacity="0"></use></g></g></g></g></svg>